<svg id="Layer_1" data-name="Layer 1" xmlns="http://www.w3.org/2000/svg" viewBox="0 0 775.78 524.25"><defs><style>.cls-1{fill:#05acea;}.cls-2{fill:#fff;}</style></defs><path class="cls-1" d="M751.73,305.73c-12.14-32.21-32.69-57.84-61.57-76.6-20.22-13.14-42.32-21.24-66.44-23.46-7.1-.66-7.19-.73-9-8.55-5.4-23.88-17.13-44.49-35-60.83-30.69-28-67-38.76-108.22-31.5-4.36.76-6-.56-7.94-4.12a162.09,162.09,0,0,0-50.26-56.95C371,14,324.42,4.05,273.69,15.47c-38.24,8.61-69.68,28.6-94.77,58.41a168.59,168.59,0,0,0-35.57,72c-1.62,7.09-1.75,6.94-9.16,6.88-27.59-.23-52.79,7.31-75.24,23.5-20.85,15-35.22,34.9-43.67,59.13-1,2.79-.6,4.27,2.47,5a118.64,118.64,0,0,1,12.48,3.43c3.51,1.24,5,.57,5.79-3.29a78.78,78.78,0,0,1,9.81-23.89c25.06-42.31,72.16-60.4,117.74-49.7,11.26,2.65,21.6,7.4,31.67,12.9,18.34,12.29,32.72,28.07,42.3,48.07l3.33,8.35a11.52,11.52,0,0,0-2-8.69h0c-7.26-21.09-20.47-37.71-38.23-50.92h0c-8.55-7.27-18.37-12.33-28.77-16.32-11.35-4.36-9.57-1.63-6.73-13.16,15-60.88,67.7-107,129.85-113.74,28.47-3.09,55.74,1,81.59,13.31,35.18,16.73,60.15,43.4,75.62,79.05,2.59,6,2.46,5.88,9.6,3.43,21.12-7.25,42.66-7.77,63.63-.64,35.24,12,58.52,36,68.4,72.35.93,3.46.55,4.38-3.22,5-32.66,5.07-60.5,19.95-84.24,42.62-3.7,3.53-5.76,3.57-9.74.43A92.86,92.86,0,0,0,453,229.72c-18.8-2.91-37-.31-54.61,6.84a44.17,44.17,0,0,0-10.35,4.95,5.8,5.8,0,0,0-4.89,2.87c2.2-.89,4.81-.63,6.58-2.55h0a45.5,45.5,0,0,0,11.06-4.07h0c4.18-.19,8.07-1.78,12.17-2.47q50.67-8.53,84.54,29.86c3.18,3.62,4.7,2.83,7.74.22,22-18.82,46.17-33.26,75.27-38a140.84,140.84,0,0,1,67,5c28.56,9.32,51.76,26.37,68.77,51.41,22.15,32.6,28.31,68.37,19.65,106.42a125.17,125.17,0,0,1-33.18,60.39c-25.42,26-56.19,40.61-92.67,40.85-70.48.48-141,.14-211.45.14-2.33,0-4.67.13-7,0s-3.27.6-3.17,3.07a100.39,100.39,0,0,1,0,13c-.39,4.54,1.08,5.79,5.71,5.78q105.23-.21,210.45-.09c26,0,51-5.19,73.74-17.9,50.27-28,78.29-70.68,82.22-128.47A144.2,144.2,0,0,0,751.73,305.73Z"/><path class="cls-2" d="M545.14,356.55c1.44-.45,2.92-1.09,2.91-2.94a3.83,3.83,0,0,0-2.44-3.95,28.41,28.41,0,0,0-9.17-2.1c-8.44-.54-16.87-1.16-26.24-1.82,8.17-11.28,15.8-21.91,23.53-32.46a163.29,163.29,0,0,1,17.19-19.42c2.35-2.32,4.28-5.44.93-8.72-3.18-3.13-6-1.85-8.61.8-3.83,3.94-7.66,7.88-11.28,12-12.83,14.66-23.51,30.9-34.28,47.07a7.86,7.86,0,0,1-5.83,3.82c-18,3.14-35.93,6.51-53.7,10.78-3.77.91-7.5,2.29-12.25,1.73,1.83-2.56,3.28-4.71,4.85-6.76,10-13.07,21.1-25.24,31.58-37.92,4.86-5.86,11.06-10.67,14.38-17.76,1.54-3.27,2.69-7.81.17-9.77-2.78-2.16-5.31,2-7.67,3.95a18.89,18.89,0,0,0-1.41,1.42c-19.63,19.95-37.18,41.7-54.76,63.43-3.64,4.51-6.15,10.36-12.22,12.65-9.44,3.56-18.94,7-28.26,10.82-12.76,5.24-25.28,11-36.78,18.79-2.42,1.64-5.39,3.62-4,6.61,1.6,3.46,5.18,1.81,8,.95a86.49,86.49,0,0,0,14.07-6.22A216.89,216.89,0,0,1,391.71,386c-.85,1.39-1.68,2.79-2.56,4.16-7.68,12-15.95,23.59-22.38,36.33a35.67,35.67,0,0,0-3.09,7.86c-.64,2.78-1.82,6.44,2.1,7.73,4.18,1.37,4.59-2.7,5.83-5.18,1-2.06,1.16-4.44,2.62-6.39q16.38-21.93,32.63-43.95c4.29-5.78,9.44-10.06,16.87-11.44,7.18-1.33,14.2-3.49,21.35-5,14.31-3.09,28.66-6,43.74-9.14-.9,1.62-1.37,2.48-1.85,3.33-11.1,19.93-21.6,40.13-27.81,62.25-.82,2.93-1.6,5.89-.35,9.34,7.74-7.45,12.62-16.08,16.89-25.12,7.17-15.17,14.84-30.08,23.27-44.61a12.87,12.87,0,0,1,9.43-6.48c7.57-1.44,15.24-1.46,22.9-1.56C536,358,540.63,357.94,545.14,356.55Z"/><path class="cls-2" d="M186.39,379.9c-16.86,7-33.09,15.41-50.3,21.57C111.17,410.4,86,418.19,59.37,420.23c-7.82.6-15.68.71-23.13-2.34-6.71-2.75-8.71-7.12-6.53-13.79a60.55,60.55,0,0,1,8.06-15.84c11.36-16.36,26.48-28.86,42.08-40.8,25-19.12,52.06-34.47,82.87-42.08,13.88-3.43,28.06-6.64,41.8,1.13a4.13,4.13,0,0,0,2.43.16c1.21-.19,2.76,1.31,3.59-.34s.24-3.18-.9-4.61A21.46,21.46,0,0,0,198.85,294c-5.34-1.58-10.82-1.69-16.06-2-6.07.19-11.94.38-17.59,1.83-48.51,12.45-90.43,36.39-125,72.66-8.87,9.3-16.11,20-19.58,32.6-4.27,15.55,2.25,26.48,17.85,30.58,11.2,3,22.49,2.34,33.71.46,34.08-5.74,66.5-16.94,98.12-30.6,7.6-3.28,15.27-6.75,20.85-13.28,1.63-1.9,4.85-4,3-6.59S188.94,378.85,186.39,379.9Z"/><path class="cls-2" d="M629.06,307.43c1.42-2.11,3.26-4.55.38-6.45-2.62-1.74-4,1.09-5.5,2.72-1.11,1.22-2.18,2.5-3.17,3.82C604.7,329.23,589.14,351.3,574.48,374a24.27,24.27,0,0,0-2.81,5.17c-1.18,3.48.57,5.37,4,4.16a36.78,36.78,0,0,0,6.9-3.77c7.57-4.77,14.28-10.83,22.31-14.92,3.27-1.66,6.56-3.21,10.82-1.79-4.42,9.42-11.52,15.25-21.4,17.73-3.22.81-6.54,1.19-9.73,2.06-3.55,1-3.87,3.29-1.83,6,2.37,3.2,5.88,3.92,9.41,3.21,14.59-2.91,25.44-10.9,31.8-24.51a16.77,16.77,0,0,0,1.21-6.32c.18-5.46-2.6-8.09-8.12-8.47a24,24,0,0,0-12,2.58c-3.45,1.61-6.87,3.28-11.41,5.46,7.79-11.71,14.84-22.33,21.92-32.94Q622.27,317.54,629.06,307.43Z"/><path class="cls-2" d="M260.44,302.76c1.1-1.65,3.41-3.38.86-5.47-2.38-1.93-4.43-.38-6.05,1.36-4.3,4.62-8.65,9.21-12.67,14.07-15.26,18.5-29.18,37.93-40.46,59.15-2.5,4.7-4.62,9.6-4.89,14.09,0,4.17.55,7.15,4.48,7.53s4.83-2.44,5.28-5.69c.7-5.16,2.71-9.9,5-14.53,3.74-7.44,8.48-14.25,13-21.22C236,335,249.21,319.6,260.44,302.76Z"/><path class="cls-2" d="M291.56,358.45c-3.21-2.71-5.78,1.12-8,2.76-8,5.92-15.61,12.25-23.37,18.43l-.74-.56c.71-1.22,1.4-2.46,2.13-3.67,2.82-4.66,5.69-9.28,8.44-14,.84-1.43,1.65-3.28.21-4.59-1.24-1.13-3.16-1-4.75-.3a7.81,7.81,0,0,0-2.83,1.9,91.71,91.71,0,0,0-15.4,24.25c-1.08,2.59-.8,5,1,6.85s4.29,1,6.49,0c5.11-2.34,9.43-6,15.2-9.42-1.84,4.15-3.29,7.45-3.65,11-.12,1.28-.43,2.85.92,3.65,1.58.93,2.81,0,3.91-1.18a33.27,33.27,0,0,0,3.19-3.08,225,225,0,0,0,16-23.68C291.81,364.28,294.75,361.13,291.56,358.45Z"/><path class="cls-2" d="M576.08,358.16c-1.92-1.49-3.42.23-5,1a23.05,23.05,0,0,0-3.72,2.5q-11.62,9.19-23.2,18.45l-.67-.46c3.56-5.67,7.28-11.26,10.58-17.09.9-1.57,3-4.08.42-5.69a5.15,5.15,0,0,0-6.45.74c-7,7.82-13.15,16.26-16.53,26.35-.62,1.86-.62,4,1.12,5.56,1.94,1.73,4,1.07,6.07.24,4-1.65,7.53-4.21,11.07-6.67,1.24-.86,2.36-2.06,4.55-1.92a31.21,31.21,0,0,0-3.58,9.78c-.34,1.57-.32,3.13,1.26,3.93s3,0,4-1.23a114.16,114.16,0,0,0,7.45-9.31c4.49-6.68,9.53-13,13-20.31C577.42,362.13,578.31,359.89,576.08,358.16Z"/><path class="cls-2" d="M350.13,348c7.39-9.59,14.81-19.18,20.55-29.91,1.31-2.45,2.16-5.12-.12-7.36-2.1-2.07-4.63-1.19-6.95-.12a31.6,31.6,0,0,0-10.85,8.61C343.81,329.67,336,341,327.62,351.94a15.24,15.24,0,0,1-9.9,5.9,51.12,51.12,0,0,0-29.6,17.22c-2.63,3-3.72,6.57-4.39,10.22.33,4.35,2.42,6.93,6.81,7.3a22.48,22.48,0,0,0,12.47-3c3.91-2.08,7.38-4.44,8.51,2.46a5.2,5.2,0,0,0,1.09,2.19c1.33,1.7,2.64,3.75,5.2,3.15s2.7-2.93,2.71-4.83c0-10.45,5.3-18.27,12.36-25.22A187.6,187.6,0,0,0,350.13,348Zm-55.49,36c1.8-6.71,13-14.66,23.15-16.48C311.77,376.23,303.47,380.1,294.64,384Z"/><path class="cls-2" d="M245.23,362.19c-5.38-3.1-11.74-2.2-17.63-3.35-.61-.12-1.51.65-2.13,1.18-4.26,3.59-7.79,7.78-9.57,13.13-3,9,1.27,15.5,10.14,15.51,9.29,0,20-8.29,22.19-17.2C249.14,367.75,248.64,364.15,245.23,362.19Zm-10,11.94c-3.15,2.17-5.91,5.54-10.89,4.06,2-4.58,2.62-9.46,8.61-9.61,2-.05,3.86.59,4.6,2.2S236.33,373.37,235.22,374.13Z"/></svg>